<?xml version="1.0" encoding="UTF-8" standalone="no"?>
<!-- Created with Inkscape (http://www.inkscape.org/) -->

<svg
   width="384"
   height="32"
   viewBox="0 0 101.6 8.4666667"
   version="1.1"
   id="svg1"
   xml:space="preserve"
   sodipodi:docname="fallen_leaves.svg"
   inkscape:version="1.4 (86a8ad7, 2024-10-11)"
   xmlns:inkscape="http://www.inkscape.org/namespaces/inkscape"
   xmlns:sodipodi="http://sodipodi.sourceforge.net/DTD/sodipodi-0.dtd"
   xmlns="http://www.w3.org/2000/svg"
   xmlns:svg="http://www.w3.org/2000/svg"><sodipodi:namedview
     id="namedview1"
     pagecolor="#ffffff"
     bordercolor="#666666"
     borderopacity="1.0"
     inkscape:showpageshadow="2"
     inkscape:pageopacity="0.0"
     inkscape:pagecheckerboard="0"
     inkscape:deskcolor="#d1d1d1"
     inkscape:document-units="mm"
     showgrid="true"
     inkscape:zoom="2.0510461"
     inkscape:cx="304.235"
     inkscape:cy="8.7760095"
     inkscape:window-width="2560"
     inkscape:window-height="1009"
     inkscape:window-x="1432"
     inkscape:window-y="1122"
     inkscape:window-maximized="1"
     inkscape:current-layer="layer1"><inkscape:grid
       id="grid9"
       units="px"
       originx="0"
       originy="0"
       spacingx="8.4666672"
       spacingy="8.4666672"
       empcolor="#0099e5"
       empopacity="0.30196078"
       color="#0099e5"
       opacity="0.14901961"
       empspacing="5"
       enabled="true"
       visible="true"
       dotted="false" /></sodipodi:namedview><defs
     id="defs1" /><g
     inkscape:label="Calque 1"
     inkscape:groupmode="layer"
     id="layer1"
     transform="translate(-41.476343,-108.03545)"><path
       style="fill:#e05d0e;stroke:none;stroke-width:0.903314"
       d="m 137.83766,108.11887 c -0.2387,0.24042 -0.41089,0.52633 -0.52035,0.84159 -0.0341,0.0983 -0.0856,0.36287 -0.19976,0.40276 -0.0752,0.0262 -0.12414,-0.10234 -0.15302,-0.14774 h -0.0265 c -0.1984,0.28089 -0.1632,0.63534 -0.27909,0.94359 -0.0372,0.0991 -0.12018,0.26265 -0.25011,0.2597 -0.17946,-0.005 -0.32366,-0.21524 -0.47624,-0.28518 2.9e-4,0.40412 0.12771,0.79721 0.15638,1.19862 0.007,0.1016 0.0439,0.34501 -0.083,0.39154 -0.10309,0.0379 -0.24023,-0.0574 -0.33754,-0.0839 -0.21303,-0.0578 -0.38636,-0.10394 -0.58249,-0.21299 -0.15206,-0.0844 -0.30048,-0.22212 -0.47624,-0.24778 0.0392,0.37679 0.33495,0.85915 0.54654,1.17312 0.1059,0.15714 0.33036,0.38748 0.32879,0.58544 -0.002,0.19374 -0.42548,0.17995 -0.55784,0.15415 l -0.0266,0.0255 c 0.2228,0.41395 0.80902,0.71547 1.24357,0.88113 0.28062,0.10697 0.59013,0.15902 0.79376,0.394 -0.26868,0.12074 -0.48586,0.39375 -0.71439,0.57473 -0.4114,0.32583 -0.79,0.5268 -1.27002,0.72592 0.0213,0.0952 0.0565,0.25959 0.18627,0.26236 0.14631,0.004 0.31331,-0.19251 0.42228,-0.27192 0.37175,-0.27089 0.73869,-0.56108 1.0848,-0.86187 0.0922,-0.0801 0.30084,-0.34254 0.44415,-0.30952 0.14158,0.0327 0.16232,0.35647 0.18561,0.46687 0.098,0.46429 0.30633,0.8589 0.61381,1.22413 0.12293,-0.068 0.16044,-0.3502 0.1852,-0.48456 0.22524,0.0517 0.41006,0.25785 0.60855,0.37096 0.26757,0.15251 0.58738,0.24297 0.87314,0.36145 0.0796,0.033 0.46694,0.23122 0.50718,0.0756 0.0237,-0.0917 -0.1033,-0.18339 -0.15225,-0.24692 -0.12872,-0.16716 -0.52036,-0.74012 -0.274,-0.89623 0.18352,-0.11631 0.47856,-0.0729 0.68636,-0.0729 0.50428,0 1.01662,0.0749 1.50815,-0.0765 v -0.051 c -0.0974,-0.0548 -0.30198,-0.12785 -0.28163,-0.26861 0.0146,-0.1014 0.19878,-0.15937 0.28163,-0.19368 0.29246,-0.12109 0.59827,-0.22716 0.8996,-0.32628 0.14441,-0.0475 0.31496,-0.0348 0.34397,-0.20602 -0.33992,-0.0119 -0.66914,-0.2159 -0.97899,-0.33145 -0.11374,-0.0424 -0.26888,-0.0448 -0.36321,-0.12387 -0.13069,-0.10955 0.0654,-0.15277 0.0478,-0.25774 -0.0198,-0.11799 -0.33169,-0.12202 -0.42544,-0.13546 -0.23916,-0.0343 -0.5149,-0.0476 -0.74085,-0.13251 -0.0702,-0.0263 -0.19766,-0.0746 -0.18361,-0.16669 0.0214,-0.13983 0.2804,-0.22018 0.39529,-0.26503 0.44537,-0.17391 0.84606,-0.38449 1.27,-0.60197 v -0.0509 c -0.14559,-0.0526 -0.56667,-0.0475 -0.62825,-0.20743 -0.0376,-0.0977 0.094,-0.21432 0.15439,-0.27712 0.15443,-0.1607 0.43952,-0.34559 0.42095,-0.58656 h -0.23813 c -0.018,-0.50721 0.58712,-0.87846 0.66147,-1.35165 -0.31827,0.0286 -0.61823,0.2195 -0.8996,0.35399 -0.18259,0.0873 -0.34328,0.15176 -0.44979,-0.0479 -0.36313,0.10079 -0.54898,0.38667 -0.9525,0.35705 -2.5e-4,-0.0824 0.0393,-0.40895 -0.0424,-0.44867 -0.10436,-0.0508 -0.27419,0.16278 -0.33556,0.22347 -0.27895,0.2758 -0.51585,0.56541 -0.76795,0.86274 -0.0835,0.0984 -0.27676,0.34592 -0.43356,0.2351 -0.13451,-0.095 -0.0947,-0.3788 -0.0762,-0.51561 0.0513,-0.37689 0.0647,-0.82233 0.0152,-1.19862 -0.10319,0.0236 -0.22898,0.15778 -0.32988,0.14501 -0.11322,-0.0143 -0.14473,-0.26615 -0.17282,-0.34905 -0.0738,-0.21772 -0.14481,-0.45752 -0.15046,-0.68818 -0.004,-0.16255 0.0741,-0.37201 -0.0348,-0.51043"
       id="path1"
       sodipodi:nodetypes="cssccccccccscscccscsccssssccssssssccscscscssssscccscccscccsssccsscc" /><path
       style="fill:#e05d0e;stroke:none;stroke-width:0.869371"
       d="m 131.32618,116.41873 c 0.22554,-0.23569 0.38823,-0.51596 0.49167,-0.82501 0.0322,-0.0964 0.0809,-0.35573 0.18875,-0.39482 0.0711,-0.0258 0.11729,0.10032 0.14458,0.14482 h 0.0251 c 0.18746,-0.27536 0.15421,-0.62282 0.26372,-0.925 0.0352,-0.097 0.11354,-0.25747 0.2363,-0.25459 0.16957,0.005 0.30583,0.21101 0.45,0.27958 -2.6e-4,-0.39616 -0.12066,-0.78152 -0.14776,-1.175 -0.007,-0.0996 -0.0414,-0.33822 0.0785,-0.38384 0.0974,-0.0371 0.22697,0.0563 0.31893,0.0822 0.20128,0.0567 0.36504,0.1019 0.55036,0.2088 0.14368,0.0828 0.28393,0.21775 0.45,0.2429 -0.037,-0.36937 -0.3165,-0.84223 -0.51641,-1.15001 -0.10007,-0.15405 -0.31215,-0.37984 -0.31068,-0.57391 0.002,-0.18992 0.40203,-0.1764 0.5271,-0.15108 l 0.0251,-0.0251 c -0.21051,-0.40579 -0.76444,-0.70137 -1.17503,-0.86376 -0.26516,-0.10487 -0.55759,-0.1559 -0.75,-0.38624 0.25387,-0.11835 0.45907,-0.386 0.67501,-0.5634 0.38872,-0.31942 0.74645,-0.51642 1.2,-0.71162 -0.0201,-0.0935 -0.0534,-0.25449 -0.17599,-0.25719 -0.13823,-0.004 -0.29604,0.18872 -0.399,0.26654 -0.35126,0.26558 -0.69798,0.55005 -1.02501,0.84491 -0.0871,0.0785 -0.28426,0.33578 -0.41966,0.30342 -0.13378,-0.0319 -0.15337,-0.34946 -0.17537,-0.45767 -0.0926,-0.45514 -0.28945,-0.84197 -0.57997,-1.20001 -0.11617,0.0667 -0.15162,0.34328 -0.17502,0.475 -0.21281,-0.0506 -0.38746,-0.25276 -0.575,-0.36365 -0.25281,-0.14949 -0.555,-0.23817 -0.825,-0.35433 -0.0752,-0.0323 -0.44121,-0.22666 -0.47921,-0.0741 -0.0224,0.0899 0.0976,0.17978 0.14386,0.24205 0.12161,0.16386 0.49166,0.72554 0.25889,0.87857 -0.1734,0.11402 -0.45219,0.0714 -0.64855,0.0714 -0.47648,0 -0.96057,-0.0734 -1.42501,0.075 v 0.0499 c 0.0919,0.0537 0.28533,0.12533 0.26611,0.26333 -0.0139,0.0995 -0.18783,0.15622 -0.26611,0.18986 -0.27633,0.1187 -0.56528,0.22268 -0.85001,0.31984 -0.13643,0.0466 -0.29759,0.0341 -0.325,0.20197 0.32118,0.0116 0.63226,0.21163 0.925,0.32491 0.1075,0.0417 0.25408,0.0439 0.3432,0.12143 0.1235,0.10738 -0.0618,0.14976 -0.0452,0.25266 0.0187,0.11567 0.31339,0.11962 0.40199,0.13281 0.22596,0.0336 0.48651,0.0466 0.7,0.12989 0.0663,0.0258 0.18676,0.0731 0.1735,0.16339 -0.0202,0.13707 -0.26495,0.21585 -0.37349,0.25981 -0.42083,0.17049 -0.79944,0.37692 -1.20001,0.59012 v 0.0499 c 0.13756,0.0516 0.53543,0.0466 0.59361,0.20335 0.0355,0.0957 -0.0889,0.21008 -0.14588,0.27166 -0.14591,0.15753 -0.41528,0.33877 -0.39774,0.575 h 0.22509 c 0.017,0.49721 -0.55475,0.86114 -0.62501,1.32501 0.30074,-0.0281 0.58416,-0.21518 0.85002,-0.34702 0.17252,-0.0856 0.32436,-0.14876 0.425,0.047 0.34311,-0.0988 0.51872,-0.37903 0.90001,-0.34999 2.2e-4,0.0808 -0.0371,0.40087 0.0401,0.43982 0.0986,0.0499 0.25906,-0.15959 0.31705,-0.21907 0.26356,-0.27037 0.48741,-0.55428 0.72562,-0.84574 0.0789,-0.0965 0.2615,-0.3391 0.40967,-0.23047 0.1271,0.0932 0.0895,0.37133 0.072,0.50545 -0.0485,0.36946 -0.0611,0.80613 -0.0144,1.175 0.0975,-0.0231 0.21638,-0.15466 0.3117,-0.14214 0.10698,0.014 0.13675,0.2609 0.16331,0.34216 0.0697,0.21343 0.13683,0.44849 0.14215,0.67462 0.004,0.15935 -0.0699,0.36468 0.0329,0.50038"
       id="path1-38"
       sodipodi:nodetypes="cssccccccccscscccscsccssssccssssssccscscscssssscccscccscccsssccsscc" /><path
       d="m 120.02328,108.86697 c -0.16557,0.31421 -0.21628,0.70726 -0.21628,1.05734 -0.21369,-0.13377 -0.23808,0.009 -0.2402,0.21627 -0.003,0.21587 0.0243,0.43171 0.0239,0.64882 -1.8e-4,0.0824 0.0102,0.18941 -0.0756,0.23504 -0.14244,0.0758 -0.423,-0.16866 -0.54915,-0.23504 -0.0269,0.30256 0.20388,0.67141 0.32927,0.93719 0.0455,0.0964 0.17373,0.29099 0.11969,0.40088 -0.0392,0.0798 -0.18486,0.0571 -0.2567,0.0553 -0.25819,-0.006 -0.51239,-0.0515 -0.76899,-0.0717 0.0807,0.2369 0.39926,0.49536 0.57673,0.67285 0.0625,0.0625 0.23553,0.18387 0.2218,0.28516 -0.011,0.0812 -0.16053,0.11507 -0.2218,0.14739 0.14338,0.29339 0.64749,0.34901 0.93719,0.3805 0.13508,0.0147 0.38558,0.0163 0.44163,0.17352 0.0515,0.14458 -0.13355,0.30989 -0.21551,0.40721 -0.29286,0.34772 -0.60192,0.6877 -0.92301,1.00927 -0.0718,0.072 -0.47006,0.36558 -0.25739,0.47734 0.11442,0.0602 0.30769,-0.32995 0.37382,-0.40524 0.27716,-0.31558 0.55018,-0.63765 0.84473,-0.9372 0.0897,-0.0912 0.20546,-0.29197 0.33649,-0.3217 0.12349,-0.028 0.24011,0.16194 0.29134,0.24961 0.18766,0.32132 0.27782,0.68588 0.59778,0.91317 l 0.048,-0.38449 c 0.17032,0.0189 0.29191,0.15868 0.43254,0.24759 0.24693,0.15613 0.788,0.41021 1.08138,0.35317 -0.11434,-0.22431 -0.28144,-0.42936 -0.40877,-0.64883 -0.0377,-0.065 -0.12937,-0.17648 -0.0906,-0.25679 0.0642,-0.13301 0.30321,-0.0446 0.40333,-0.0235 0.39011,0.0818 0.8053,0.13815 1.20152,0.0881 l -0.38449,-0.38448 0.64882,-0.12015 c -0.03,-0.0484 -0.1107,-0.10547 -0.10166,-0.16787 0.0148,-0.10227 0.2151,-0.1388 0.29389,-0.17217 0.22971,-0.0972 0.79683,-0.20708 0.91318,-0.42894 l -0.96122,-0.25813 -0.28342,-0.17657 0.13923,-0.1901 c -0.28951,-0.0665 -0.59484,0.0589 -0.88914,0.0168 -0.10203,-0.0146 -0.26059,-0.0397 -0.31537,-0.13959 -0.0684,-0.1245 0.11926,-0.27755 0.19124,-0.35782 0.27815,-0.31012 0.66813,-0.50541 0.89312,-0.86511 -0.16872,-0.007 -0.43307,-0.007 -0.50796,-0.19261 -0.062,-0.15357 0.0814,-0.36142 0.13078,-0.50428 0.12996,-0.37612 0.27745,-0.81247 0.35315,-1.20151 l -0.91316,0.58721 -0.45657,0.20579 v -0.21627 c -0.17656,0.0894 -0.45615,0.4949 -0.57813,0.0961 -0.0194,-0.0634 -0.0267,-0.12902 -0.0467,-0.19224 h -0.048 c -0.14141,0.3646 -0.29554,0.72057 -0.49511,1.05734 -0.0635,0.10716 -0.13835,0.30749 -0.27387,0.33907 -0.14967,0.0349 -0.18145,-0.1922 -0.20429,-0.291 -0.0783,-0.33877 -0.20076,-0.68049 -0.18019,-1.03332 l -0.24031,0.24031 h -0.0241 l -0.49687,-0.76898 -0.20001,-0.5527"
       style="fill:#e05d0e;stroke:none;stroke-width:0.83565"
       id="path1-4" /><path
       d="m 115.32944,115.67058 c 0.16556,-0.31421 0.21628,-0.70725 0.21628,-1.05733 0.21368,0.13376 0.23807,-0.009 0.2402,-0.21627 0.003,-0.21587 -0.0243,-0.43171 -0.0239,-0.64882 1.8e-4,-0.0825 -0.0102,-0.18942 0.0756,-0.23505 0.14243,-0.0758 0.42299,0.16867 0.54914,0.23505 0.0269,-0.30258 -0.20388,-0.67142 -0.32927,-0.93719 -0.0455,-0.0964 -0.17373,-0.29099 -0.11969,-0.40088 0.0392,-0.0798 0.18486,-0.0571 0.25672,-0.0553 0.25817,0.006 0.51237,0.0515 0.76897,0.0717 -0.0807,-0.2369 -0.39927,-0.49536 -0.57673,-0.67285 -0.0625,-0.0625 -0.23553,-0.18387 -0.2218,-0.28516 0.011,-0.0812 0.16053,-0.11507 0.2218,-0.14739 -0.14338,-0.29339 -0.64749,-0.34901 -0.93718,-0.3805 -0.1351,-0.0147 -0.38559,-0.0163 -0.44165,-0.17352 -0.0515,-0.14457 0.13357,-0.30989 0.21553,-0.4072 0.29286,-0.34771 0.60191,-0.6877 0.92299,-1.00928 0.0718,-0.072 0.47007,-0.36557 0.25741,-0.47733 -0.11442,-0.0601 -0.3077,0.32995 -0.37383,0.40525 -0.27716,0.31556 -0.55017,0.63763 -0.84472,0.93718 -0.0897,0.0912 -0.20548,0.29197 -0.3365,0.3217 -0.12349,0.028 -0.24011,-0.16192 -0.29133,-0.2496 -0.18766,-0.32132 -0.27782,-0.68588 -0.59779,-0.91317 l -0.048,0.38449 c -0.17033,-0.0189 -0.29192,-0.15868 -0.43255,-0.2476 -0.24693,-0.15612 -0.78798,-0.41021 -1.08137,-0.35316 0.11435,0.22431 0.28144,0.42936 0.40877,0.64883 0.0377,0.065 0.12937,0.17647 0.0906,0.25678 -0.0642,0.13302 -0.30322,0.0446 -0.40333,0.0235 -0.39012,-0.0817 -0.80531,-0.13814 -1.20152,-0.088 l 0.38449,0.38449 -0.64883,0.12014 c 0.03,0.0484 0.11071,0.10548 0.10166,0.16788 -0.0148,0.10226 -0.21509,0.1388 -0.2939,0.17216 -0.22971,0.0972 -0.79682,0.20708 -0.91318,0.42895 l 0.96124,0.25812 0.28342,0.17657 -0.13924,0.1901 c 0.28952,0.0665 0.59483,-0.0589 0.88913,-0.0168 0.10203,0.0146 0.2606,0.0397 0.31538,0.13959 0.0683,0.1245 -0.11927,0.27755 -0.19124,0.35782 -0.27814,0.31011 -0.66813,0.50541 -0.89312,0.86511 0.16872,0.007 0.43308,0.007 0.50796,0.19261 0.062,0.15356 -0.0814,0.36141 -0.13077,0.50427 -0.12996,0.37612 -0.27745,0.81249 -0.35315,1.20152 l 0.91315,-0.58721 0.45658,-0.2058 v 0.21628 c 0.17655,-0.0894 0.45613,-0.4949 0.57811,-0.0962 0.0194,0.0634 0.0267,0.12901 0.0467,0.19223 h 0.048 c 0.14141,-0.3646 0.29554,-0.72057 0.49511,-1.05733 0.0635,-0.10716 0.13834,-0.3075 0.27386,-0.33906 0.14967,-0.0349 0.18146,0.19219 0.2043,0.29098 0.0783,0.33877 0.20076,0.68049 0.18019,1.03333 l 0.2403,-0.24032 h 0.0242 l 0.49686,0.76899 0.20001,0.5527"
       style="fill:#e05d0e;stroke:none;stroke-width:0.835648"
       id="path1-4-3" /><path
       d="m 105.94943,110.37189 c 0.0506,0.17175 -0.004,0.43789 -0.0247,0.6166 -0.008,0.0667 -0.0437,0.20609 0.0331,0.24788 0.0506,0.0276 0.13303,-0.0243 0.18433,-0.0359 -0.0106,0.19254 -0.18019,0.35186 -0.26256,0.52025 -0.0299,0.0611 -0.0811,0.17776 -0.0295,0.24059 0.061,0.0741 0.16502,-0.0242 0.21489,-0.0635 0.17163,-0.13478 0.33739,-0.36697 0.53952,-0.44695 -0.0433,0.20697 0.10571,0.11028 0.23123,0.058 0.13166,-0.0548 0.26668,-0.1074 0.3853,-0.18808 0.0931,-0.0634 0.15278,-0.14592 0.26984,-0.15898 l -0.3041,0.80929 -0.0895,0.30217 0.20097,0.064 c -0.0924,0.19831 -0.32421,0.33797 -0.50099,0.45604 -0.073,0.0488 -0.21583,0.1109 -0.24555,0.19987 -0.0509,0.15239 0.2663,0.27185 0.36115,0.32708 0.0422,0.0246 0.15441,0.077 0.11396,0.14235 -0.0364,0.059 -0.14932,0.0969 -0.21028,0.12268 -0.21235,0.0899 -0.44529,0.13202 -0.67441,0.12179 -0.0733,-0.004 -0.29431,-0.005 -0.30365,0.0967 -0.0153,0.16681 0.23306,0.31398 0.26511,0.47962 -0.25861,-0.005 -0.53903,-0.12284 -0.77075,-0.23123 l -0.0193,0.0578 c -0.17348,-0.0733 -0.30625,-0.22286 -0.44869,-0.34157 -0.0504,-0.042 -0.13058,-0.11557 -0.20212,-0.08 -0.0862,0.0429 -0.11145,0.22313 -0.14291,0.30594 -0.1055,0.27767 -0.21896,0.54233 -0.3473,0.80929 -0.0365,0.0758 -0.11628,0.34823 -0.24192,0.30113 -0.13476,-0.0505 0.11392,-0.28053 0.14945,-0.33966 0.15279,-0.25428 0.25464,-0.53122 0.35509,-0.80929 0.0268,-0.0744 0.11792,-0.23594 0.0792,-0.31362 -0.0507,-0.1016 -0.27497,-0.0237 -0.35689,-0.006 -0.39874,0.0873 -0.70138,0.004 -1.07904,-0.12379 v -0.0385 c 0.0799,-0.0374 0.32358,-0.10129 0.32358,-0.21189 0,-0.0992 -0.21598,-0.16907 -0.28497,-0.21376 -0.1845,-0.11951 -0.57927,-0.37121 -0.65521,-0.57633 0.0905,0.004 0.17871,0.0195 0.26976,0.0192 0.0589,-1.8e-4 0.11534,-0.004 0.17342,-0.0145 0.4931,-0.0808 -0.12712,-0.69931 -0.17342,-0.96818 0.0632,10e-4 0.16862,0.0333 0.2196,-0.0146 0.0677,-0.0637 0.0159,-0.21621 0.004,-0.29371 -0.0385,-0.24724 -0.10458,-0.48706 -0.14625,-0.73222 0.28755,0.11062 0.49599,0.40984 0.73221,0.59733 l 0.0385,-0.13487 h 0.0385 c 0.14617,0.20411 0.25929,0.43068 0.37089,0.65513 0.0305,0.0612 0.0803,0.2068 0.16474,0.20804 0.0983,10e-4 0.054,-0.17671 0.048,-0.22731 -0.0313,-0.26158 -0.0247,-0.52675 -0.0247,-0.79002 0.10069,0.0296 0.16434,0.18449 0.26766,0.18604 0.0737,0.001 0.0873,-0.1151 0.10135,-0.16676 0.0521,-0.19105 0.10048,-0.40107 0.18977,-0.57807 l 0.18921,0.10518 0.15243,-0.20152 0.2557,-0.69368 c 0.19051,0.0587 0.28078,0.53647 0.3371,0.71295 0.0587,0.18403 0.0637,0.32242 0.27949,0.23123 m -3.00635,0.3877 0.0193,0.0193 -0.0193,-0.0193 m -0.0187,0.88712 0.0193,0.0193 -0.0193,-0.0193 m -0.26969,0.90549 0.0193,0.0192 -0.0193,-0.0192"
       style="fill:#e05d0e;stroke:none;stroke-width:0.670063"
       id="path1-76" /><path
       d="m 95.548526,114.91003 0.0388,-0.0582 c -0.0661,-0.011 -0.0271,-0.10485 -0.0139,-0.15534 0.0413,-0.1583 0.0658,-0.32334 0.0866,-0.48545 0.008,-0.0674 0.0266,-0.19029 -0.0369,-0.23652 -0.0472,-0.0344 -0.14142,0.0223 -0.15624,-0.0564 -0.0291,-0.15466 0.12515,-0.39164 0.16164,-0.542 0.0185,-0.0761 0.0195,-0.17407 -0.0801,-0.18734 -0.0854,-0.0114 -0.18571,0.0262 -0.27177,0.032 0.0138,-0.26461 0.3128,-0.47132 0.47082,-0.6602 0.0576,-0.0688 0.16529,-0.17048 0.1574,-0.26973 -0.009,-0.11545 -0.18875,-0.0739 -0.25927,-0.0603 -0.27337,0.0525 -0.55806,0.13272 -0.83498,0.15534 v -0.11652 l -0.81555,0.15534 c -10e-4,-0.10708 0.10011,-0.18115 0.17476,-0.25069 0.15108,-0.14074 0.34352,-0.28262 0.44493,-0.46747 0.0639,-0.11639 -0.16379,-0.16914 -0.0342,-0.27897 0.14512,-0.12297 0.38635,-0.16414 0.56015,-0.23395 0.0556,-0.0223 0.16914,-0.0522 0.16805,-0.12902 -0.001,-0.0868 -0.12769,-0.15967 -0.18747,-0.20596 -0.0571,-0.0442 -0.11221,-0.0873 -0.17476,-0.1233 v -0.0388 c 0.27958,-0.0826 0.625,0 0.91264,0 0.097,0 0.27385,0.0298 0.32453,-0.0814 0.0604,-0.13229 -0.25076,-0.42605 -0.31431,-0.54003 -0.0213,-0.0381 -0.11093,-0.15147 -0.0557,-0.19161 0.0525,-0.0381 0.18819,0.0394 0.23965,0.0595 0.15193,0.0597 0.32104,0.0994 0.46603,0.1735 0.0508,0.0259 0.12667,0.0981 0.18801,0.0687 0.0684,-0.0327 0.045,-0.16587 0.045,-0.22674 0.34734,0.18019 0.40033,0.60757 0.67962,0.83497 0.18098,-0.3876 0.45961,-0.72091 0.67836,-1.08704 0.039,-0.0654 0.22194,-0.17384 0.22194,-0.019 0,0.0871 -0.14328,0.17239 -0.19563,0.23225 -0.16876,0.19302 -0.31149,0.40758 -0.45217,0.62137 -0.0381,0.0579 -0.17695,0.22492 -0.13605,0.29662 0.0407,0.0714 0.16552,0.0529 0.23307,0.0529 0.23035,1e-5 0.43542,0.007 0.66022,0.0582 l -0.11651,0.11654 v 0.0388 c 0.28628,0.11921 0.54787,0.35016 0.69905,0.62136 -0.12844,-0.001 -0.41579,-0.086 -0.51151,0.0321 -0.0628,0.0774 0.0881,0.23544 0.12961,0.29801 0.18382,0.27707 0.26448,0.55481 0.34307,0.87381 -0.11238,-0.0475 -0.24138,-0.20093 -0.36886,-0.19707 -0.084,0.003 -0.11683,0.0866 -0.11061,0.15822 0.0179,0.20596 0.0938,0.41515 0.0328,0.62138 l -0.13592,-0.0582 -0.21361,1.00973 -0.14471,-0.3301 -0.28247,-0.56312 h -0.0195 l -0.0971,0.1165 c -0.10344,-0.18461 -0.0675,-0.67388 -0.27516,-0.77504 -0.1223,-0.0595 -0.17497,0.17491 -0.18931,0.25076 -0.062,0.32765 -0.12314,0.65621 -0.13748,0.99032 -0.12522,-0.0655 -0.12753,-0.28462 -0.27136,-0.3234 -0.0826,-0.0222 -0.13228,0.11569 -0.1664,0.16806 -0.097,0.1488 -0.22704,0.36064 -0.41663,0.38835 v -0.11651 c -0.24446,0.17221 -0.41853,0.42907 -0.60196,0.66021 l -0.0388,-0.0195 m 3.41821,-3.21375 -0.0195,-0.0195 0.0195,0.0195 m -0.0582,-0.0196 -0.0195,-0.0195 0.0195,0.0195 m -0.19425,-0.23181 -0.0195,-0.0195 0.0195,0.0195 m -0.97085,-0.5059 -0.0195,-0.0195 0.0195,0.0195 m 0.34953,0 -0.0195,-0.0195 0.0195,0.0195"
       style="fill:#e05d0e;stroke:none;stroke-width:0.67525"
       id="path1-27" /><path
       d="m 88.976249,112.88996 -0.49019,-0.0981 c 0.44299,-0.37754 0.95287,-0.63374 1.30718,-1.11109 l -0.45751,0.0653 c -0.097,-0.24929 0.0557,-0.4538 0.14937,-0.68627 0.17564,-0.43588 0.27612,-0.78558 0.56957,-1.17645 l -0.0653,-0.0981 c -0.43025,0.14568 -0.8615,0.46481 -1.27449,0.66911 -0.18438,0.0913 -0.45104,0.36423 -0.49019,0.0171 h -0.0981 c -0.12326,0.24162 -0.45512,0.78355 -0.68627,0.91502 -0.0883,-0.60215 -0.48336,0.15289 -0.55554,0.35948 -0.14998,0.42924 -0.21492,0.81486 -0.19479,1.27449 0.0119,0.27283 0.14149,0.6162 0.0398,0.88233 -0.0785,0.20543 -0.33389,0.4084 -0.49858,0.54709 -0.0669,0.0563 -0.2145,0.12525 -0.19868,0.23283 0.0148,0.10078 0.12148,0.0752 0.17548,0.029 0.17491,-0.14994 0.34774,-0.32134 0.51336,-0.48259 0.36877,-0.359 0.75562,-0.3013 1.20913,-0.47809 0.4335,-0.16896 0.77591,-0.49024 1.04574,-0.86128 m 0.42517,-0.9878 0.0327,-0.0328 -0.0327,0.0328 m -1.17666,-1.17608 0.0327,-0.0328 -0.0327,0.0328"
       style="fill:#e05d0e;stroke:none;stroke-width:1.13641"
       id="path1-3-5" /><path
       d="m 70.829341,113.50798 0.411404,-0.56024 0.196338,-0.13602 0.125006,0.22213 c 0.310051,-0.1525 0.340388,-0.71927 0.363028,-1.01906 0.0094,-0.12392 -0.02773,-0.27651 0.05329,-0.38144 0.153896,-0.19936 0.654979,-0.32395 0.639691,-0.60377 -0.240885,0.0901 -0.473803,0.45823 -0.732749,0.46728 -0.179648,0.006 -0.390682,-0.12669 -0.560333,-0.17962 -0.218027,-0.0681 -0.419184,-0.0603 -0.640387,-0.0272 -0.09547,0.0143 -0.246731,0.0357 -0.320228,0.10419 -0.13355,0.12446 0.248356,0.20236 0.171066,0.31683 -0.05935,0.0879 -0.240839,0.11653 -0.331123,0.16818 -0.188566,0.10786 -0.309998,0.26494 -0.474126,0.40024 v 0.0431 l 0.275809,0.11518 -0.06828,0.20778 -0.336835,0.51755 c 0.219324,0.0642 0.529336,-0.0606 0.754296,-0.0896 0.06235,-0.008 0.190776,-0.0796 0.245928,-0.0423 0.118358,0.08 0.08706,0.36313 0.228196,0.47678 m -0.280838,-2.01227 0.02158,-0.0216 -0.02158,0.0216 m -0.172415,-0.0431 0.02159,-0.0215 -0.02159,0.0215"
       style="fill:#e05d0e;stroke:none;stroke-width:0.749439"
       id="path1-7-1" /><path
       d="m 62.923345,111.02958 -0.411405,0.56025 -0.196337,0.13602 -0.125007,-0.22214 c -0.310051,0.15251 -0.340387,0.71928 -0.363028,1.01907 -0.0094,0.12392 0.02773,0.27651 -0.05329,0.38145 -0.153896,0.19936 -0.654979,0.32394 -0.639691,0.60376 0.240884,-0.0901 0.473803,-0.45822 0.732749,-0.46728 0.179648,-0.006 0.390681,0.12668 0.560333,0.17963 0.218026,0.0681 0.419183,0.0602 0.640387,0.0272 0.09547,-0.0143 0.24673,-0.0357 0.320228,-0.10419 0.133549,-0.12446 -0.248356,-0.20236 -0.171066,-0.31684 0.05935,-0.0879 0.240839,-0.11654 0.331123,-0.16818 0.188566,-0.10786 0.309999,-0.26493 0.474125,-0.40023 v -0.043 l -0.275809,-0.11517 0.06828,-0.20778 0.336835,-0.51755 c -0.219324,-0.0642 -0.529336,0.0607 -0.754295,0.0896 -0.06235,0.008 -0.190778,0.0796 -0.245929,0.0423 -0.118359,-0.0799 -0.08707,-0.36313 -0.228196,-0.47677 m 0.280837,2.01228 -0.02159,0.0216 0.02159,-0.0216 m 0.172416,0.0431 -0.02159,0.0215 0.02159,-0.0215"
       style="fill:#e05d0e;stroke:none;stroke-width:0.749439"
       id="path1-7" /><path
       d="m 53.192084,112.80137 c 0.07454,-0.11634 0.260119,-0.0806 0.358375,-0.18209 0.07146,-0.0739 0.0686,-0.20179 0.106169,-0.2938 0.08161,-0.1999 0.233709,-0.40922 0.404306,-0.54181 0.173403,-0.13476 0.269463,-0.16499 0.277624,0.0659 l 0.843621,-0.17304 c -0.06206,0.31224 -0.317507,0.74234 -0.605677,0.88689 l 0.108155,0.0649 c -0.08823,0.27958 -0.647764,0.25759 -0.865255,0.18758 -0.08152,-0.0263 -0.151611,-0.10529 -0.237951,-0.11152 -0.110555,-0.008 -0.274202,0.0755 -0.389367,0.097 m -0.02158,-0.0648 0.02167,-0.0217 -0.02167,0.0217"
       style="fill:#e05d0e;stroke:none;stroke-width:0.752225"
       id="path1-2" /><path
       d="m 46.693927,111.73619 c -0.07454,0.11634 -0.26012,0.0806 -0.358375,0.1821 -0.07147,0.0739 -0.0686,0.20179 -0.106169,0.2938 -0.08161,0.1999 -0.233709,0.40921 -0.404306,0.5418 -0.173404,0.13477 -0.269463,0.165 -0.277625,-0.0659 l -0.84362,0.17305 c 0.06205,-0.31224 0.317507,-0.74234 0.605677,-0.88689 l -0.108155,-0.0649 c 0.08822,-0.27958 0.647763,-0.25759 0.865255,-0.18758 0.08152,0.0263 0.151611,0.10529 0.237951,0.11152 0.110555,0.008 0.274202,-0.0755 0.389367,-0.097 m 0.02159,0.0648 -0.02167,0.0217 0.02167,-0.0217"
       style="fill:#e05d0e;stroke:none;stroke-width:0.752225"
       id="path1-2-7" /><path
       d="m 78.643104,111.64761 0.49019,0.0981 c -0.44298,0.37754 -0.95287,0.63374 -1.30718,1.11109 l 0.45751,-0.0653 c 0.097,0.24929 -0.0557,0.4538 -0.14937,0.68627 -0.17563,0.43589 -0.27611,0.78558 -0.56957,1.17645 l 0.0653,0.0981 c 0.43026,-0.14568 0.8615,-0.46481 1.2745,-0.6691 0.18438,-0.0913 0.45104,-0.36422 0.49019,-0.0171 h 0.0981 c 0.12325,-0.24161 0.45512,-0.78354 0.68626,-0.91501 0.0883,0.60216 0.48336,-0.15289 0.55555,-0.35949 0.14998,-0.42922 0.21491,-0.81486 0.19479,-1.27449 -0.012,-0.27282 -0.1415,-0.6162 -0.0398,-0.88233 0.0785,-0.20543 0.33388,-0.40838 0.49857,-0.54707 0.0669,-0.0563 0.2145,-0.12526 0.19868,-0.23285 -0.0148,-0.10078 -0.12148,-0.0752 -0.17547,-0.029 -0.17492,0.14994 -0.34774,0.32135 -0.51336,0.48258 -0.36878,0.359 -0.75562,0.3013 -1.20914,0.47809 -0.4335,0.16896 -0.77591,0.49025 -1.04574,0.86128 m -0.42517,0.9878 -0.0327,0.0328 0.0327,-0.0328 m 1.17666,1.17609 -0.0327,0.0328 0.0327,-0.0328"
       style="fill:#e05d0e;stroke:none;stroke-width:1.13641"
       id="path1-3" /></g></svg>
