<?xml version="1.0" encoding="UTF-8" standalone="no"?>
<!-- Created with Inkscape (http://www.inkscape.org/) -->

<svg
   width="100.016mm"
   height="8.2999001mm"
   viewBox="0 0 100.016 8.2999001"
   version="1.1"
   id="svg1"
   xml:space="preserve"
   sodipodi:docname="fallen_leaves.svg"
   inkscape:version="1.4 (86a8ad7, 2024-10-11)"
   xmlns:inkscape="http://www.inkscape.org/namespaces/inkscape"
   xmlns:sodipodi="http://sodipodi.sourceforge.net/DTD/sodipodi-0.dtd"
   xmlns="http://www.w3.org/2000/svg"
   xmlns:svg="http://www.w3.org/2000/svg"><sodipodi:namedview
     id="namedview1"
     pagecolor="#ffffff"
     bordercolor="#666666"
     borderopacity="1.0"
     inkscape:showpageshadow="2"
     inkscape:pageopacity="0.0"
     inkscape:pagecheckerboard="0"
     inkscape:deskcolor="#d1d1d1"
     inkscape:document-units="mm"
     showgrid="true"
     inkscape:zoom="2.0510461"
     inkscape:cx="370.54261"
     inkscape:cy="-24.377803"
     inkscape:window-width="2560"
     inkscape:window-height="1009"
     inkscape:window-x="1432"
     inkscape:window-y="1122"
     inkscape:window-maximized="1"
     inkscape:current-layer="layer1"><inkscape:grid
       id="grid9"
       units="mm"
       originx="-41.476345"
       originy="-108.03545"
       spacingx="0.26458333"
       spacingy="0.26458334"
       empcolor="#0099e5"
       empopacity="0.30196078"
       color="#0099e5"
       opacity="0.14901961"
       empspacing="5"
       enabled="true"
       visible="true" /></sodipodi:namedview><defs
     id="defs1" /><g
     inkscape:label="Calque 1"
     inkscape:groupmode="layer"
     id="layer1"
     transform="translate(-41.476343,-108.03545)"><g
       id="g20"
       transform="translate(3.0439418)"><path
         style="fill:#e05d0e;stroke:none;stroke-width:0.869371"
         d="m 133.4984,108.03549 c -0.22554,0.23568 -0.38824,0.51596 -0.49167,0.82501 -0.0322,0.0964 -0.0809,0.35572 -0.18875,0.39483 -0.071,0.0257 -0.11729,-0.10033 -0.14458,-0.14483 h -0.025 c -0.18747,0.27535 -0.15421,0.62281 -0.26371,0.92499 -0.0351,0.0971 -0.11355,0.25748 -0.23632,0.25459 -0.16957,-0.005 -0.30582,-0.211 -0.44999,-0.27957 2.7e-4,0.39616 0.12067,0.78151 0.14776,1.17501 0.007,0.0996 0.0415,0.33821 -0.0784,0.38382 -0.0974,0.0371 -0.22698,-0.0563 -0.31893,-0.0822 -0.20129,-0.0567 -0.36506,-0.1019 -0.55038,-0.20879 -0.14368,-0.0828 -0.28392,-0.21775 -0.44999,-0.2429 0.037,0.36936 0.31649,0.84222 0.51641,1.15 0.10007,0.15405 0.31215,0.37985 0.31067,0.57391 -0.002,0.18992 -0.40203,0.1764 -0.52709,0.15111 l -0.0251,0.025 c 0.21052,0.40579 0.76443,0.70137 1.17502,0.86377 0.26516,0.10486 0.5576,0.15589 0.75001,0.38624 -0.25387,0.11835 -0.45908,0.38599 -0.67501,0.5634 -0.38872,0.31942 -0.74645,0.51642 -1.20001,0.71162 0.0201,0.0934 0.0534,0.25448 0.176,0.25719 0.13824,0.004 0.29604,-0.18872 0.399,-0.26656 0.35126,-0.26556 0.69797,-0.55003 1.025,-0.84489 0.0871,-0.0785 0.28426,-0.33579 0.41967,-0.30343 0.13378,0.032 0.15337,0.34946 0.17538,0.45768 0.0926,0.45514 0.28944,0.84197 0.57997,1.20001 0.11616,-0.0667 0.1516,-0.3433 0.175,-0.47501 0.21282,0.0506 0.38745,0.25277 0.575,0.36365 0.25282,0.1495 0.555,0.23818 0.82501,0.35433 0.0752,0.0323 0.4412,0.22666 0.47922,0.0741 0.0224,-0.0899 -0.0976,-0.17978 -0.14385,-0.24206 -0.12163,-0.16386 -0.49168,-0.72553 -0.2589,-0.87857 0.1734,-0.11401 0.45218,-0.0714 0.64853,-0.0714 0.47648,0 0.96058,0.0734 1.42501,-0.075 v -0.05 c -0.092,-0.0537 -0.28533,-0.12533 -0.2661,-0.26332 0.0138,-0.0994 0.18782,-0.15622 0.2661,-0.18986 0.27634,-0.1187 0.56529,-0.22268 0.85001,-0.31985 0.13645,-0.0466 0.2976,-0.0341 0.32501,-0.20196 -0.32118,-0.0116 -0.63225,-0.21164 -0.92502,-0.32491 -0.10747,-0.0416 -0.25406,-0.0439 -0.34319,-0.12144 -0.12349,-0.10738 0.0618,-0.14975 0.0452,-0.25266 -0.0187,-0.11566 -0.3134,-0.11961 -0.40199,-0.13279 -0.22597,-0.0336 -0.48651,-0.0467 -0.70001,-0.1299 -0.0663,-0.0258 -0.18676,-0.0731 -0.17349,-0.1634 0.0202,-0.13708 0.26495,-0.21585 0.3735,-0.25981 0.42082,-0.17049 0.79943,-0.37692 1.2,-0.59011 v -0.0499 c -0.13757,-0.0516 -0.53544,-0.0466 -0.59362,-0.20334 -0.0355,-0.0958 0.0888,-0.2101 0.14588,-0.27167 0.14591,-0.15753 0.41529,-0.33877 0.39774,-0.575 h -0.225 c -0.017,-0.49721 0.55476,-0.86115 0.62501,-1.32501 -0.30073,0.0281 -0.58415,0.21517 -0.85001,0.34701 -0.17253,0.0856 -0.32436,0.14877 -0.425,-0.047 -0.34311,0.0988 -0.51872,0.37905 -0.9,0.35001 -2.3e-4,-0.0808 0.0371,-0.40089 -0.0401,-0.43982 -0.0986,-0.0498 -0.25907,0.15957 -0.31706,0.21906 -0.26357,0.27036 -0.48741,0.55427 -0.72562,0.84574 -0.0789,0.0965 -0.2615,0.3391 -0.40966,0.23047 -0.12709,-0.0932 -0.0895,-0.37134 -0.072,-0.50545 0.0485,-0.36947 0.0611,-0.80613 0.0144,-1.175 -0.0975,0.0231 -0.21636,0.15466 -0.31169,0.14214 -0.10698,-0.014 -0.13676,-0.2609 -0.1633,-0.34216 -0.0697,-0.21343 -0.13683,-0.44851 -0.14216,-0.67463 -0.004,-0.15934 0.07,-0.36468 -0.0329,-0.50037"
         id="path1"
         sodipodi:nodetypes="cssccccccccscscccscsccssssccssssssccscscscssssscccscccscccsssccsscc" /><path
         style="fill:#e05d0e;stroke:none;stroke-width:0.869371"
         d="m 127.08315,116.33535 c 0.22554,-0.23569 0.38823,-0.51596 0.49167,-0.82501 0.0322,-0.0964 0.0809,-0.35573 0.18875,-0.39482 0.0711,-0.0258 0.11729,0.10032 0.14458,0.14482 h 0.0251 c 0.18746,-0.27536 0.15421,-0.62282 0.26372,-0.925 0.0352,-0.097 0.11354,-0.25747 0.2363,-0.25459 0.16957,0.005 0.30583,0.21101 0.45,0.27958 -2.6e-4,-0.39616 -0.12066,-0.78152 -0.14776,-1.175 -0.007,-0.0996 -0.0414,-0.33822 0.0785,-0.38384 0.0974,-0.0371 0.22697,0.0563 0.31893,0.0822 0.20128,0.0567 0.36504,0.1019 0.55036,0.2088 0.14368,0.0828 0.28393,0.21775 0.45,0.2429 -0.037,-0.36937 -0.3165,-0.84223 -0.51641,-1.15001 -0.10007,-0.15405 -0.31215,-0.37984 -0.31068,-0.57391 0.002,-0.18992 0.40203,-0.1764 0.5271,-0.15108 l 0.0251,-0.0251 c -0.21051,-0.40579 -0.76444,-0.70137 -1.17503,-0.86376 -0.26516,-0.10487 -0.55759,-0.1559 -0.75,-0.38624 0.25387,-0.11835 0.45907,-0.386 0.67501,-0.5634 0.38872,-0.31942 0.74645,-0.51642 1.2,-0.71162 -0.0201,-0.0935 -0.0534,-0.25449 -0.17599,-0.25719 -0.13823,-0.004 -0.29604,0.18872 -0.399,0.26654 -0.35126,0.26558 -0.69798,0.55005 -1.02501,0.84491 -0.0871,0.0785 -0.28426,0.33578 -0.41966,0.30342 -0.13378,-0.0319 -0.15337,-0.34946 -0.17537,-0.45767 -0.0926,-0.45514 -0.28945,-0.84197 -0.57997,-1.20001 -0.11617,0.0667 -0.15162,0.34328 -0.17502,0.475 -0.21281,-0.0506 -0.38746,-0.25276 -0.575,-0.36365 -0.25281,-0.14949 -0.555,-0.23817 -0.825,-0.35433 -0.0752,-0.0323 -0.44121,-0.22666 -0.47921,-0.0741 -0.0224,0.0899 0.0976,0.17978 0.14386,0.24205 0.12161,0.16386 0.49166,0.72554 0.25889,0.87857 -0.1734,0.11402 -0.45219,0.0714 -0.64855,0.0714 -0.47648,0 -0.96057,-0.0734 -1.42501,0.075 v 0.0499 c 0.0919,0.0537 0.28533,0.12533 0.26611,0.26333 -0.0139,0.0995 -0.18783,0.15622 -0.26611,0.18986 -0.27633,0.1187 -0.56528,0.22268 -0.85001,0.31984 -0.13643,0.0466 -0.29759,0.0341 -0.325,0.20197 0.32118,0.0116 0.63226,0.21163 0.925,0.32491 0.1075,0.0417 0.25408,0.0439 0.3432,0.12143 0.1235,0.10738 -0.0618,0.14976 -0.0452,0.25266 0.0187,0.11567 0.31339,0.11962 0.40199,0.13281 0.22596,0.0336 0.48651,0.0466 0.7,0.12989 0.0663,0.0258 0.18676,0.0731 0.1735,0.16339 -0.0202,0.13707 -0.26495,0.21585 -0.37349,0.25981 -0.42083,0.17049 -0.79944,0.37692 -1.20001,0.59012 v 0.0499 c 0.13756,0.0516 0.53543,0.0466 0.59361,0.20335 0.0355,0.0957 -0.0889,0.21008 -0.14588,0.27166 -0.14591,0.15753 -0.41528,0.33877 -0.39774,0.575 h 0.22509 c 0.017,0.49721 -0.55475,0.86114 -0.62501,1.32501 0.30074,-0.0281 0.58416,-0.21518 0.85002,-0.34702 0.17252,-0.0856 0.32436,-0.14876 0.425,0.047 0.34311,-0.0988 0.51872,-0.37903 0.90001,-0.34999 2.2e-4,0.0808 -0.0371,0.40087 0.0401,0.43982 0.0986,0.0499 0.25906,-0.15959 0.31705,-0.21907 0.26356,-0.27037 0.48741,-0.55428 0.72562,-0.84574 0.0789,-0.0965 0.2615,-0.3391 0.40967,-0.23047 0.1271,0.0932 0.0895,0.37133 0.072,0.50545 -0.0485,0.36946 -0.0611,0.80613 -0.0144,1.175 0.0975,-0.0231 0.21638,-0.15466 0.3117,-0.14214 0.10698,0.014 0.13675,0.2609 0.16331,0.34216 0.0697,0.21343 0.13683,0.44849 0.14215,0.67462 0.004,0.15935 -0.0699,0.36468 0.0329,0.50038"
         id="path1-38"
         sodipodi:nodetypes="cssccccccccscscccscsccssssccssssssccscscscssssscccscccscccsssccsscc" /><path
         d="m 115.88179,108.78359 c -0.16557,0.31421 -0.21628,0.70726 -0.21628,1.05734 -0.21369,-0.13377 -0.23808,0.009 -0.2402,0.21627 -0.003,0.21587 0.0243,0.43171 0.0239,0.64882 -1.8e-4,0.0824 0.0102,0.18941 -0.0756,0.23504 -0.14244,0.0758 -0.423,-0.16866 -0.54915,-0.23504 -0.0269,0.30256 0.20388,0.67141 0.32927,0.93719 0.0455,0.0964 0.17373,0.29099 0.11969,0.40088 -0.0392,0.0798 -0.18486,0.0571 -0.2567,0.0553 -0.25819,-0.006 -0.51239,-0.0515 -0.76899,-0.0717 0.0807,0.2369 0.39926,0.49536 0.57673,0.67285 0.0625,0.0625 0.23553,0.18387 0.2218,0.28516 -0.011,0.0812 -0.16053,0.11507 -0.2218,0.14739 0.14338,0.29339 0.64749,0.34901 0.93719,0.3805 0.13508,0.0147 0.38558,0.0163 0.44163,0.17352 0.0515,0.14458 -0.13355,0.30989 -0.21551,0.40721 -0.29286,0.34772 -0.60192,0.6877 -0.92301,1.00927 -0.0718,0.072 -0.47006,0.36558 -0.25739,0.47734 0.11442,0.0602 0.30769,-0.32995 0.37382,-0.40524 0.27716,-0.31558 0.55018,-0.63765 0.84473,-0.9372 0.0897,-0.0912 0.20546,-0.29197 0.33649,-0.3217 0.12349,-0.028 0.24011,0.16194 0.29134,0.24961 0.18766,0.32132 0.27782,0.68588 0.59778,0.91317 l 0.048,-0.38449 c 0.17032,0.0189 0.29191,0.15868 0.43254,0.24759 0.24693,0.15613 0.788,0.41021 1.08138,0.35317 -0.11434,-0.22431 -0.28144,-0.42936 -0.40877,-0.64883 -0.0377,-0.065 -0.12937,-0.17648 -0.0906,-0.25679 0.0642,-0.13301 0.30321,-0.0446 0.40333,-0.0235 0.39011,0.0818 0.8053,0.13815 1.20152,0.0881 l -0.38449,-0.38448 0.64882,-0.12015 c -0.03,-0.0484 -0.1107,-0.10547 -0.10166,-0.16787 0.0148,-0.10227 0.2151,-0.1388 0.29389,-0.17217 0.22971,-0.0972 0.79683,-0.20708 0.91318,-0.42894 l -0.96122,-0.25813 -0.28342,-0.17657 0.13923,-0.1901 c -0.28951,-0.0665 -0.59484,0.0589 -0.88914,0.0168 -0.10203,-0.0146 -0.26059,-0.0397 -0.31537,-0.13959 -0.0684,-0.1245 0.11926,-0.27755 0.19124,-0.35782 0.27815,-0.31012 0.66813,-0.50541 0.89312,-0.86511 -0.16872,-0.007 -0.43307,-0.007 -0.50796,-0.19261 -0.062,-0.15357 0.0814,-0.36142 0.13078,-0.50428 0.12996,-0.37612 0.27745,-0.81247 0.35315,-1.20151 l -0.91316,0.58721 -0.45657,0.20579 v -0.21627 c -0.17656,0.0894 -0.45615,0.4949 -0.57813,0.0961 -0.0194,-0.0634 -0.0267,-0.12902 -0.0467,-0.19224 h -0.048 c -0.14141,0.3646 -0.29554,0.72057 -0.49511,1.05734 -0.0635,0.10716 -0.13835,0.30749 -0.27387,0.33907 -0.14967,0.0349 -0.18145,-0.1922 -0.20429,-0.291 -0.0783,-0.33877 -0.20076,-0.68049 -0.18019,-1.03332 l -0.24031,0.24031 h -0.0241 l -0.49687,-0.76898 -0.20001,-0.5527"
         style="fill:#e05d0e;stroke:none;stroke-width:0.83565"
         id="path1-4" /><path
         d="m 111.28951,115.5872 c 0.16556,-0.31421 0.21628,-0.70725 0.21628,-1.05733 0.21368,0.13376 0.23807,-0.009 0.2402,-0.21627 0.003,-0.21587 -0.0243,-0.43171 -0.0239,-0.64882 1.8e-4,-0.0825 -0.0102,-0.18942 0.0756,-0.23505 0.14243,-0.0758 0.42299,0.16867 0.54914,0.23505 0.0269,-0.30258 -0.20388,-0.67142 -0.32927,-0.93719 -0.0455,-0.0964 -0.17373,-0.29099 -0.11969,-0.40088 0.0392,-0.0798 0.18486,-0.0571 0.25672,-0.0553 0.25817,0.006 0.51237,0.0515 0.76897,0.0717 -0.0807,-0.2369 -0.39927,-0.49536 -0.57673,-0.67285 -0.0625,-0.0625 -0.23553,-0.18387 -0.2218,-0.28516 0.011,-0.0812 0.16053,-0.11507 0.2218,-0.14739 -0.14338,-0.29339 -0.64749,-0.34901 -0.93718,-0.3805 -0.1351,-0.0147 -0.38559,-0.0163 -0.44165,-0.17352 -0.0515,-0.14457 0.13357,-0.30989 0.21553,-0.4072 0.29286,-0.34771 0.60191,-0.6877 0.92299,-1.00928 0.0718,-0.072 0.47007,-0.36557 0.25741,-0.47733 -0.11442,-0.0601 -0.3077,0.32995 -0.37383,0.40525 -0.27716,0.31556 -0.55017,0.63763 -0.84472,0.93718 -0.0897,0.0912 -0.20548,0.29197 -0.3365,0.3217 -0.12349,0.028 -0.24011,-0.16192 -0.29133,-0.2496 -0.18766,-0.32132 -0.27782,-0.68588 -0.59779,-0.91317 l -0.048,0.38449 c -0.17033,-0.0189 -0.29192,-0.15868 -0.43255,-0.2476 -0.24693,-0.15612 -0.78798,-0.41021 -1.08137,-0.35316 0.11435,0.22431 0.28144,0.42936 0.40877,0.64883 0.0377,0.065 0.12937,0.17647 0.0906,0.25678 -0.0642,0.13302 -0.30322,0.0446 -0.40333,0.0235 -0.39012,-0.0817 -0.80531,-0.13814 -1.20152,-0.088 l 0.38449,0.38449 -0.64883,0.12014 c 0.03,0.0484 0.11071,0.10548 0.10166,0.16788 -0.0148,0.10226 -0.21509,0.1388 -0.2939,0.17216 -0.22971,0.0972 -0.79682,0.20708 -0.91318,0.42895 l 0.96124,0.25812 0.28342,0.17657 -0.13924,0.1901 c 0.28952,0.0665 0.59483,-0.0589 0.88913,-0.0168 0.10203,0.0146 0.2606,0.0397 0.31538,0.13959 0.0683,0.1245 -0.11927,0.27755 -0.19124,0.35782 -0.27814,0.31011 -0.66813,0.50541 -0.89312,0.86511 0.16872,0.007 0.43308,0.007 0.50796,0.19261 0.062,0.15356 -0.0814,0.36141 -0.13077,0.50427 -0.12996,0.37612 -0.27745,0.81249 -0.35315,1.20152 l 0.91315,-0.58721 0.45658,-0.2058 v 0.21628 c 0.17655,-0.0894 0.45613,-0.4949 0.57811,-0.0962 0.0194,0.0634 0.0267,0.12901 0.0467,0.19223 h 0.048 c 0.14141,-0.3646 0.29554,-0.72057 0.49511,-1.05733 0.0635,-0.10716 0.13834,-0.3075 0.27386,-0.33906 0.14967,-0.0349 0.18146,0.19219 0.2043,0.29098 0.0783,0.33877 0.20076,0.68049 0.18019,1.03333 l 0.2403,-0.24032 h 0.0242 l 0.49686,0.76899 0.20001,0.5527"
         style="fill:#e05d0e;stroke:none;stroke-width:0.835648"
         id="path1-4-3" /><path
         d="m 102.01106,110.28851 c 0.0506,0.17175 -0.004,0.43789 -0.0247,0.6166 -0.008,0.0667 -0.0437,0.20609 0.0331,0.24788 0.0506,0.0276 0.13303,-0.0243 0.18433,-0.0359 -0.0106,0.19254 -0.18019,0.35186 -0.26256,0.52025 -0.0299,0.0611 -0.0811,0.17776 -0.0295,0.24059 0.061,0.0741 0.16502,-0.0242 0.21489,-0.0635 0.17163,-0.13478 0.33739,-0.36697 0.53952,-0.44695 -0.0433,0.20697 0.10571,0.11028 0.23123,0.058 0.13166,-0.0548 0.26668,-0.1074 0.3853,-0.18808 0.0931,-0.0634 0.15278,-0.14592 0.26984,-0.15898 l -0.3041,0.80929 -0.0895,0.30217 0.20097,0.064 c -0.0924,0.19831 -0.32421,0.33797 -0.50099,0.45604 -0.073,0.0488 -0.21583,0.1109 -0.24555,0.19987 -0.0509,0.15239 0.2663,0.27185 0.36115,0.32708 0.0422,0.0246 0.15441,0.077 0.11396,0.14235 -0.0364,0.059 -0.14932,0.0969 -0.21028,0.12268 -0.21235,0.0899 -0.44529,0.13202 -0.67441,0.12179 -0.0733,-0.004 -0.29431,-0.005 -0.30365,0.0967 -0.0153,0.16681 0.23306,0.31398 0.26511,0.47962 -0.25861,-0.005 -0.53903,-0.12284 -0.77075,-0.23123 l -0.0193,0.0578 c -0.17348,-0.0733 -0.30625,-0.22286 -0.44869,-0.34157 -0.0504,-0.042 -0.13058,-0.11557 -0.20212,-0.08 -0.0862,0.0429 -0.11145,0.22313 -0.14291,0.30594 -0.1055,0.27767 -0.21896,0.54233 -0.3473,0.80929 -0.0365,0.0758 -0.11628,0.34823 -0.241924,0.30113 -0.13476,-0.0505 0.113924,-0.28053 0.149454,-0.33966 0.15279,-0.25428 0.25464,-0.53122 0.35509,-0.80929 0.0268,-0.0744 0.11792,-0.23594 0.0792,-0.31362 -0.0507,-0.1016 -0.27497,-0.0237 -0.35689,-0.006 -0.398744,0.0873 -0.701384,0.004 -1.079044,-0.12379 v -0.0385 c 0.0799,-0.0374 0.32358,-0.10129 0.32358,-0.21189 0,-0.0992 -0.21598,-0.16907 -0.28497,-0.21376 -0.1845,-0.11951 -0.57927,-0.37121 -0.65521,-0.57633 0.0905,0.004 0.17871,0.0195 0.26976,0.0192 0.0589,-1.8e-4 0.11534,-0.004 0.17342,-0.0145 0.4931,-0.0808 -0.12712,-0.69931 -0.17342,-0.96818 0.0632,0.001 0.16862,0.0333 0.2196,-0.0146 0.0677,-0.0637 0.0159,-0.21621 0.004,-0.29371 -0.0385,-0.24724 -0.10458,-0.48706 -0.14625,-0.73222 0.28755,0.11062 0.49599,0.40984 0.73221,0.59733 l 0.0385,-0.13487 h 0.0385 c 0.14617,0.20411 0.25929,0.43068 0.370894,0.65513 0.0305,0.0612 0.0803,0.2068 0.16474,0.20804 0.0983,0.001 0.054,-0.17671 0.048,-0.22731 -0.0313,-0.26158 -0.0247,-0.52675 -0.0247,-0.79002 0.10069,0.0296 0.16434,0.18449 0.26766,0.18604 0.0737,10e-4 0.0873,-0.1151 0.10135,-0.16676 0.0521,-0.19105 0.10048,-0.40107 0.18977,-0.57807 l 0.18921,0.10518 0.15243,-0.20152 0.2557,-0.69368 c 0.19051,0.0587 0.28078,0.53647 0.3371,0.71295 0.0587,0.18403 0.0637,0.32242 0.27949,0.23123 m -3.006354,0.3877 0.0193,0.0193 -0.0193,-0.0193 m -0.0187,0.88712 0.0193,0.0193 -0.0193,-0.0193 m -0.26969,0.90549 0.0193,0.0192 -0.0193,-0.0192"
         style="fill:#e05d0e;stroke:none;stroke-width:0.670063"
         id="path1-76" /><path
         d="m 91.711713,114.82665 0.0388,-0.0582 c -0.0661,-0.011 -0.0271,-0.10485 -0.0139,-0.15534 0.0413,-0.1583 0.0658,-0.32334 0.0866,-0.48545 0.008,-0.0674 0.0266,-0.19029 -0.0369,-0.23652 -0.0472,-0.0344 -0.14142,0.0223 -0.15624,-0.0564 -0.0291,-0.15466 0.12515,-0.39164 0.16164,-0.542 0.0185,-0.0761 0.0195,-0.17407 -0.0801,-0.18734 -0.0854,-0.0114 -0.18571,0.0262 -0.27177,0.032 0.0138,-0.26461 0.3128,-0.47132 0.47082,-0.6602 0.0576,-0.0688 0.16529,-0.17048 0.1574,-0.26973 -0.009,-0.11545 -0.18875,-0.0739 -0.25927,-0.0603 -0.27337,0.0525 -0.55806,0.13272 -0.83498,0.15534 v -0.11652 l -0.81555,0.15534 c -0.001,-0.10708 0.10011,-0.18115 0.17476,-0.25069 0.15108,-0.14074 0.34352,-0.28262 0.44493,-0.46747 0.0639,-0.11639 -0.16379,-0.16914 -0.0342,-0.27897 0.14512,-0.12297 0.38635,-0.16414 0.56015,-0.23395 0.0556,-0.0223 0.16914,-0.0522 0.16805,-0.12902 -0.001,-0.0868 -0.12769,-0.15967 -0.18747,-0.20596 -0.0571,-0.0442 -0.11221,-0.0873 -0.17476,-0.1233 v -0.0388 c 0.27958,-0.0826 0.625,0 0.91264,0 0.097,0 0.27385,0.0298 0.32453,-0.0814 0.0604,-0.13229 -0.25076,-0.42605 -0.31431,-0.54003 -0.0213,-0.0381 -0.11093,-0.15147 -0.0557,-0.19161 0.0525,-0.0381 0.18819,0.0394 0.23965,0.0595 0.15193,0.0597 0.32104,0.0994 0.46603,0.1735 0.0508,0.0259 0.12667,0.0981 0.18801,0.0687 0.0684,-0.0327 0.045,-0.16587 0.045,-0.22674 0.34734,0.18019 0.40033,0.60757 0.67962,0.83497 0.18098,-0.3876 0.45961,-0.72091 0.67836,-1.08704 0.039,-0.0654 0.22194,-0.17384 0.22194,-0.019 0,0.0871 -0.14328,0.17239 -0.19563,0.23225 -0.16876,0.19302 -0.31149,0.40758 -0.45217,0.62137 -0.0381,0.0579 -0.17695,0.22492 -0.13605,0.29662 0.0407,0.0714 0.16552,0.0529 0.23307,0.0529 0.23035,1e-5 0.43542,0.007 0.66022,0.0582 l -0.11651,0.11654 v 0.0388 c 0.28628,0.11921 0.54787,0.35016 0.69905,0.62136 -0.12844,-0.001 -0.41579,-0.086 -0.51151,0.0321 -0.0628,0.0774 0.0881,0.23544 0.12961,0.29801 0.18382,0.27707 0.26448,0.55481 0.34307,0.87381 -0.11238,-0.0475 -0.24138,-0.20093 -0.36886,-0.19707 -0.084,0.003 -0.11683,0.0866 -0.11061,0.15822 0.0179,0.20596 0.0938,0.41515 0.0328,0.62138 l -0.13592,-0.0582 -0.21361,1.00973 -0.14471,-0.3301 -0.28247,-0.56312 h -0.0195 l -0.0971,0.1165 c -0.10344,-0.18461 -0.0675,-0.67388 -0.27516,-0.77504 -0.1223,-0.0595 -0.17497,0.17491 -0.18931,0.25076 -0.062,0.32765 -0.12314,0.65621 -0.13748,0.99032 -0.12522,-0.0655 -0.12753,-0.28462 -0.27136,-0.3234 -0.0826,-0.0222 -0.13228,0.11569 -0.1664,0.16806 -0.097,0.1488 -0.22704,0.36064 -0.41663,0.38835 v -0.11651 c -0.24446,0.17221 -0.41853,0.42907 -0.60196,0.66021 l -0.0388,-0.0195 m 3.41821,-3.21375 -0.0195,-0.0195 0.0195,0.0195 m -0.0582,-0.0196 -0.0195,-0.0195 0.0195,0.0195 m -0.19425,-0.23181 -0.0195,-0.0195 0.0195,0.0195 m -0.97085,-0.5059 -0.0195,-0.0195 0.0195,0.0195 m 0.34953,0 -0.0195,-0.0195 0.0195,0.0195"
         style="fill:#e05d0e;stroke:none;stroke-width:0.67525"
         id="path1-27" /><path
         d="m 85.240992,112.80658 -0.49019,-0.0981 c 0.44299,-0.37754 0.95287,-0.63374 1.30718,-1.11109 l -0.45751,0.0653 c -0.097,-0.24929 0.0557,-0.4538 0.14937,-0.68627 0.17564,-0.43588 0.27612,-0.78558 0.56957,-1.17645 l -0.0653,-0.0981 c -0.43025,0.14568 -0.8615,0.46481 -1.27449,0.66911 -0.18438,0.0913 -0.45104,0.36423 -0.49019,0.0171 h -0.0981 c -0.12326,0.24162 -0.45512,0.78355 -0.68627,0.91502 -0.0883,-0.60215 -0.48336,0.15289 -0.55554,0.35948 -0.14998,0.42924 -0.21492,0.81486 -0.19479,1.27449 0.0119,0.27283 0.14149,0.6162 0.0398,0.88233 -0.0785,0.20543 -0.33389,0.4084 -0.49858,0.54709 -0.0669,0.0563 -0.2145,0.12525 -0.19868,0.23283 0.0148,0.10078 0.12148,0.0752 0.17548,0.029 0.17491,-0.14994 0.34774,-0.32134 0.51336,-0.48259 0.36877,-0.359 0.75562,-0.3013 1.20913,-0.47809 0.4335,-0.16896 0.77591,-0.49024 1.04574,-0.86128 m 0.42517,-0.9878 0.0327,-0.0328 -0.0327,0.0328 m -1.17666,-1.17608 0.0327,-0.0328 -0.0327,0.0328"
         style="fill:#e05d0e;stroke:none;stroke-width:1.13641"
         id="path1-3-5" /><path
         d="m 67.297188,113.4246 0.411404,-0.56024 0.196338,-0.13602 0.125006,0.22213 c 0.310051,-0.1525 0.340388,-0.71927 0.363028,-1.01906 0.0094,-0.12392 -0.02773,-0.27651 0.05329,-0.38144 0.153896,-0.19936 0.654979,-0.32395 0.639691,-0.60377 -0.240885,0.0901 -0.473803,0.45823 -0.732749,0.46728 -0.179648,0.006 -0.390682,-0.12669 -0.560333,-0.17962 -0.218027,-0.0681 -0.419184,-0.0603 -0.640387,-0.0272 -0.09547,0.0143 -0.246731,0.0357 -0.320228,0.10419 -0.13355,0.12446 0.248356,0.20236 0.171066,0.31683 -0.05935,0.0879 -0.240839,0.11653 -0.331123,0.16818 -0.188566,0.10786 -0.309998,0.26494 -0.474126,0.40024 v 0.0431 l 0.275809,0.11518 -0.06828,0.20778 -0.336835,0.51755 c 0.219324,0.0642 0.529336,-0.0606 0.754296,-0.0896 0.06235,-0.008 0.190776,-0.0796 0.245928,-0.0423 0.118358,0.08 0.08706,0.36313 0.228196,0.47678 m -0.280838,-2.01227 0.02158,-0.0216 -0.02158,0.0216 m -0.172415,-0.0431 0.02159,-0.0215 -0.02159,0.0215"
         style="fill:#e05d0e;stroke:none;stroke-width:0.749439"
         id="path1-7-1" /><path
         d="m 59.492747,110.9462 -0.411405,0.56025 -0.196337,0.13602 -0.125007,-0.22214 c -0.310051,0.15251 -0.340387,0.71928 -0.363028,1.01907 -0.0094,0.12392 0.02773,0.27651 -0.05329,0.38145 -0.153896,0.19936 -0.654979,0.32394 -0.639691,0.60376 0.240884,-0.0901 0.473803,-0.45822 0.732749,-0.46728 0.179648,-0.006 0.390681,0.12668 0.560333,0.17963 0.218026,0.0681 0.419183,0.0602 0.640387,0.0272 0.09547,-0.0143 0.24673,-0.0357 0.320228,-0.10419 0.133549,-0.12446 -0.248356,-0.20236 -0.171066,-0.31684 0.05935,-0.0879 0.240839,-0.11654 0.331123,-0.16818 0.188566,-0.10786 0.309999,-0.26493 0.474125,-0.40023 v -0.043 l -0.275809,-0.11517 0.06828,-0.20778 0.336835,-0.51755 c -0.219324,-0.0642 -0.529336,0.0607 -0.754295,0.0896 -0.06235,0.008 -0.190778,0.0796 -0.245929,0.0423 -0.118359,-0.0799 -0.08707,-0.36313 -0.228196,-0.47677 m 0.280837,2.01228 -0.02159,0.0216 0.02159,-0.0216 m 0.172416,0.0431 -0.02159,0.0215 0.02159,-0.0215"
         style="fill:#e05d0e;stroke:none;stroke-width:0.749439"
         id="path1-7" /><path
         d="m 49.86304,112.71798 c 0.07454,-0.11634 0.260119,-0.0806 0.358375,-0.18209 0.07146,-0.0739 0.0686,-0.20179 0.106169,-0.2938 0.08161,-0.1999 0.233709,-0.40922 0.404306,-0.54181 0.173403,-0.13476 0.269463,-0.16499 0.277624,0.0659 l 0.843621,-0.17304 c -0.06206,0.31224 -0.317507,0.74234 -0.605677,0.88689 l 0.108155,0.0649 c -0.08823,0.27958 -0.647764,0.25759 -0.865255,0.18758 -0.08152,-0.0263 -0.151611,-0.10529 -0.237951,-0.11152 -0.110555,-0.008 -0.274202,0.0755 -0.389367,0.097 m -0.02158,-0.0648 0.02167,-0.0217 -0.02167,0.0217"
         style="fill:#e05d0e;stroke:none;stroke-width:0.752225"
         id="path1-2" /><path
         d="m 43.466438,111.65281 c -0.07454,0.11634 -0.26012,0.0806 -0.358375,0.1821 -0.07147,0.0739 -0.0686,0.20179 -0.106169,0.2938 -0.08161,0.1999 -0.233709,0.40921 -0.404306,0.5418 -0.173404,0.13477 -0.269463,0.165 -0.277625,-0.0659 l -0.84362,0.17305 c 0.06205,-0.31224 0.317507,-0.74234 0.605677,-0.88689 l -0.108155,-0.0649 c 0.08822,-0.27958 0.647763,-0.25759 0.865255,-0.18758 0.08152,0.0263 0.151611,0.10529 0.237951,0.11152 0.110555,0.008 0.274202,-0.0755 0.389367,-0.097 m 0.02159,0.0648 -0.02167,0.0217 0.02167,-0.0217"
         style="fill:#e05d0e;stroke:none;stroke-width:0.752225"
         id="path1-2-7" /><path
         d="m 75.009392,111.56423 0.49019,0.0981 c -0.44298,0.37754 -0.95287,0.63374 -1.30718,1.11109 l 0.45751,-0.0653 c 0.097,0.24929 -0.0557,0.4538 -0.14937,0.68627 -0.17563,0.43589 -0.27611,0.78558 -0.56957,1.17645 l 0.0653,0.0981 c 0.43026,-0.14568 0.8615,-0.46481 1.2745,-0.6691 0.18438,-0.0913 0.45104,-0.36422 0.49019,-0.0171 h 0.0981 c 0.12325,-0.24161 0.45512,-0.78354 0.68626,-0.91501 0.0883,0.60216 0.48336,-0.15289 0.55555,-0.35949 0.14998,-0.42922 0.21491,-0.81486 0.19479,-1.27449 -0.012,-0.27282 -0.1415,-0.6162 -0.0398,-0.88233 0.0785,-0.20543 0.33388,-0.40838 0.49857,-0.54707 0.0669,-0.0563 0.2145,-0.12526 0.19868,-0.23285 -0.0148,-0.10078 -0.12148,-0.0752 -0.17547,-0.029 -0.17492,0.14994 -0.34774,0.32135 -0.51336,0.48258 -0.36878,0.359 -0.75562,0.3013 -1.20914,0.47809 -0.4335,0.16896 -0.77591,0.49025 -1.04574,0.86128 m -0.42517,0.9878 -0.0327,0.0328 0.0327,-0.0328 m 1.17666,1.17609 -0.0327,0.0328 0.0327,-0.0328"
         style="fill:#e05d0e;stroke:none;stroke-width:1.13641"
         id="path1-3" /></g></g></svg>
