<?xml version="1.0" encoding="UTF-8" standalone="no"?>
<svg
   version="1.1"
   width="150"
   height="200"
   viewBox="0 0 150 200"
   xml:space="preserve"
   id="svg4"
   sodipodi:docname="pinkcardcard.svg"
   inkscape:version="1.4 (86a8ad7, 2024-10-11)"
   xmlns:inkscape="http://www.inkscape.org/namespaces/inkscape"
   xmlns:sodipodi="http://sodipodi.sourceforge.net/DTD/sodipodi-0.dtd"
   xmlns="http://www.w3.org/2000/svg"
   xmlns:svg="http://www.w3.org/2000/svg"><defs
   id="defs4" /><sodipodi:namedview
   id="namedview4"
   pagecolor="#ffffff"
   bordercolor="#666666"
   borderopacity="1.0"
   inkscape:showpageshadow="2"
   inkscape:pageopacity="0.0"
   inkscape:pagecheckerboard="0"
   inkscape:deskcolor="#d1d1d1"
   inkscape:clip-to-page="false"
   inkscape:zoom="3.6073494"
   inkscape:cx="99.519053"
   inkscape:cy="102.01396"
   inkscape:window-width="3440"
   inkscape:window-height="1369"
   inkscape:window-x="1432"
   inkscape:window-y="1122"
   inkscape:window-maximized="1"
   inkscape:current-layer="svg4" />
<g
   style="opacity:1;fill:#e580ff;fill-rule:nonzero;stroke:none;stroke-width:0;stroke-linecap:butt;stroke-linejoin:miter;stroke-miterlimit:10;stroke-dasharray:none"
   transform="matrix(2.3229883,0,0,2.2222222,-29.534473,9.9999999e-7)"
   id="g4">
	<path
   d="M 74.188,89.5 H 15.812 c -1.435,0 -2.598,-1.163 -2.598,-2.598 V 3.098 c 0,-1.435 1.163,-2.598 2.598,-2.598 h 58.376 c 1.435,0 2.598,1.163 2.598,2.598 V 86.902 C 76.785,88.337 75.622,89.5 74.188,89.5 Z"
   style="opacity:1;fill:#e580ff;fill-rule:evenodd;stroke:none;stroke-width:1;stroke-linecap:butt;stroke-linejoin:miter;stroke-miterlimit:10;stroke-dasharray:none"
   stroke-linecap="round"
   id="path1" />
	<path
   d="M 74.187,90 H 15.812 c -1.708,0 -3.098,-1.39 -3.098,-3.098 V 3.098 C 12.714,1.39 14.104,0 15.812,0 h 58.375 c 1.709,0 3.099,1.39 3.099,3.098 V 86.903 C 77.286,88.61 75.896,90 74.187,90 Z M 15.812,1 c -1.157,0 -2.098,0.941 -2.098,2.098 v 83.805 c 0,1.156 0.941,2.098 2.098,2.098 h 58.375 c 1.157,0 2.099,-0.941 2.099,-2.098 V 3.098 C 76.286,1.941 75.344,1 74.187,1 Z"
   style="opacity:1;fill:#e580ff;fill-rule:nonzero;stroke:none;stroke-width:1;stroke-linecap:butt;stroke-linejoin:miter;stroke-miterlimit:10;stroke-dasharray:none"
   stroke-linecap="round"
   id="path2" />
	
	<path
   d="m 72.116,71.352 v -1.414 l -0.736,0.736 -5.888,-5.888 5.888,-5.888 0.736,0.736 V 58.22 l -0.029,-0.029 0.029,-0.029 v -1.414 l -0.736,0.736 -5.888,-5.888 5.888,-5.888 0.736,0.736 V 45.03 L 72.087,45 72.116,44.971 v -1.414 l -0.736,0.736 -5.888,-5.888 5.888,-5.888 0.736,0.736 v -1.414 l -0.029,-0.029 0.029,-0.029 v -1.414 l -0.736,0.736 -5.888,-5.888 5.888,-5.888 0.735,0.735 V 18.648 L 72.087,18.62 72.115,18.592 V 17.178 L 71.38,17.913 65.492,12.025 71.793,5.724 C 71.595,5.446 71.316,5.233 70.991,5.112 L 64.786,11.317 58.897,5.43 59.327,5 h -2.274 l 0.43,0.43 -5.888,5.888 L 45.707,5.43 46.137,5 h -2.274 l 0.43,0.43 -5.888,5.888 L 32.517,5.43 32.947,5 h -2.274 l 0.43,0.43 -5.888,5.888 -6.205,-6.206 c -0.325,0.121 -0.604,0.334 -0.802,0.612 l 6.301,6.301 -5.888,5.888 -0.736,-0.736 v 1.414 l 0.029,0.029 -0.029,0.029 v 1.414 l 0.736,-0.736 5.888,5.888 -5.888,5.888 -0.736,-0.736 v 1.414 l 0.029,0.029 -0.029,0.029 v 1.414 l 0.736,-0.736 5.888,5.888 -5.888,5.888 -0.736,-0.736 v 1.414 L 17.913,45 17.884,45.029 v 1.414 l 0.736,-0.736 5.888,5.888 -5.888,5.888 -0.736,-0.736 v 1.414 l 0.029,0.029 -0.029,0.029 v 1.414 l 0.736,-0.736 5.888,5.888 -5.888,5.888 -0.736,-0.736 v 1.414 l 0.029,0.029 -0.029,0.029 v 1.414 l 0.736,-0.736 5.888,5.888 -6.301,6.301 c 0.198,0.278 0.477,0.491 0.802,0.612 l 6.205,-6.205 5.888,5.888 L 30.673,85 h 2.274 l -0.43,-0.43 5.888,-5.888 5.888,5.888 -0.43,0.43 h 2.275 l -0.43,-0.43 5.888,-5.888 5.888,5.888 -0.431,0.43 h 2.274 l -0.43,-0.43 5.888,-5.888 6.205,6.205 c 0.325,-0.121 0.604,-0.334 0.802,-0.612 l -6.301,-6.301 5.888,-5.888 0.736,0.736 V 71.408 L 72.086,71.379 Z M 70.673,58.19 64.785,64.078 58.897,58.19 64.785,52.302 Z M 44.293,45 38.405,50.888 32.517,45 38.405,39.112 Z M 39.112,38.405 45,32.517 50.888,38.405 45,44.293 Z M 45,45.707 50.888,51.595 45,57.483 39.112,51.595 Z M 45.707,45 51.595,39.112 57.483,45 51.595,50.888 Z m 12.483,0.707 5.888,5.888 -5.888,5.888 -5.888,-5.888 z m -5.888,-7.302 5.888,-5.888 5.888,5.888 -5.888,5.888 z m 0,-13.19 5.888,-5.888 5.888,5.888 -5.888,5.888 z m 5.181,6.595 -5.888,5.888 -5.888,-5.888 5.888,-5.888 z M 45,31.103 39.112,25.215 45,19.327 l 5.888,5.888 z m -0.707,0.707 -5.888,5.888 -5.888,-5.888 5.888,-5.888 z m -12.483,-0.707 -5.888,-5.888 5.888,-5.888 5.888,5.888 z m 5.888,7.302 -5.888,5.888 -5.888,-5.888 5.888,-5.888 z m 0,13.19 -5.888,5.888 -5.888,-5.888 5.888,-5.888 z m 0,13.19 -5.888,5.888 -5.888,-5.888 5.888,-5.888 z m -5.181,-6.595 5.888,-5.888 5.888,5.888 -5.888,5.888 z M 45,58.897 50.888,64.785 45,70.673 39.112,64.785 Z m 0.707,-0.707 5.888,-5.888 5.888,5.888 -5.888,5.888 z m 12.483,0.707 5.888,5.888 -5.888,5.888 -5.888,-5.888 z M 70.673,45 64.785,50.888 58.897,45 64.785,39.112 Z m 0,-13.19 -5.888,5.888 -5.888,-5.888 5.888,-5.888 z m 0,-13.19 -5.888,5.888 -5.888,-5.888 5.888,-5.888 z M 58.19,6.137 64.078,12.025 58.19,17.913 52.302,12.025 Z M 57.483,18.62 51.595,24.508 45.707,18.62 51.595,12.732 Z M 45,6.137 50.888,12.025 45,17.913 39.112,12.025 Z M 44.293,18.62 38.405,24.508 32.517,18.62 38.405,12.732 Z M 31.81,6.137 l 5.888,5.888 -5.888,5.888 -5.888,-5.888 z m -12.483,12.483 5.888,-5.888 5.888,5.888 -5.888,5.888 z m 0,13.19 5.888,-5.888 5.888,5.888 -5.888,5.888 z m 0,13.19 5.888,-5.888 5.888,5.888 -5.888,5.888 z m 0,13.19 5.888,-5.888 5.888,5.888 -5.888,5.888 z m 0,13.19 5.888,-5.888 5.888,5.888 -5.888,5.888 z m 12.483,12.483 -5.888,-5.888 5.888,-5.888 5.888,5.888 z m 0.707,-12.483 5.888,-5.888 5.888,5.888 -5.888,5.888 z M 45,83.863 39.112,77.975 45,72.087 l 5.888,5.888 z m 0.707,-12.483 5.888,-5.888 5.888,5.888 -5.888,5.888 z m 12.483,12.483 -5.888,-5.888 5.888,-5.888 5.888,5.888 z m 6.595,-6.595 -5.888,-5.888 5.888,-5.888 5.888,5.888 z"
   style="opacity:1;fill:#e580ff;fill-rule:evenodd;stroke:none;stroke-width:1;stroke-linecap:butt;stroke-linejoin:miter;stroke-miterlimit:10;stroke-dasharray:none"
   stroke-linecap="round"
   id="path4" />
</g>
</svg>
